<?xml version="1.0" encoding="UTF-8" standalone="no"?>
<!-- Created with Inkscape (http://www.inkscape.org/) -->

<svg
   xmlns:dc="http://purl.org/dc/elements/1.1/"
   xmlns:cc="http://creativecommons.org/ns#"
   xmlns:rdf="http://www.w3.org/1999/02/22-rdf-syntax-ns#"
   xmlns:svg="http://www.w3.org/2000/svg"
   xmlns="http://www.w3.org/2000/svg"
   xmlns:sodipodi="http://sodipodi.sourceforge.net/DTD/sodipodi-0.dtd"
   xmlns:inkscape="http://www.inkscape.org/namespaces/inkscape"
   width="32"
   height="32"
   viewBox="0 0 8.4666666 8.4666667"
   version="1.1"
   id="svg2706"
   inkscape:version="0.92.5 (2060ec1f9f, 2020-04-08)"
   sodipodi:docname="link.svg">
  <defs
     id="defs2700" />
  <sodipodi:namedview
     id="base"
     pagecolor="#ffffff"
     bordercolor="#666666"
     borderopacity="1.0"
     inkscape:pageopacity="0.0"
     inkscape:pageshadow="2"
     inkscape:zoom="8.0125"
     inkscape:cx="-20.797966"
     inkscape:cy="24.876933"
     inkscape:document-units="mm"
     inkscape:current-layer="layer1"
     showgrid="false"
     fit-margin-top="0"
     fit-margin-left="0"
     fit-margin-right="0"
     fit-margin-bottom="0"
     inkscape:window-width="1848"
     inkscape:window-height="1016"
     inkscape:window-x="72"
     inkscape:window-y="27"
     inkscape:window-maximized="1"
     units="px" />
  <metadata
     id="metadata2703">
    <rdf:RDF>
      <cc:Work
         rdf:about="">
        <dc:format>image/svg+xml</dc:format>
        <dc:type
           rdf:resource="http://purl.org/dc/dcmitype/StillImage" />
        <dc:title />
      </cc:Work>
    </rdf:RDF>
  </metadata>
  <g
     inkscape:label="Ebene 1"
     inkscape:groupmode="layer"
     id="layer1"
     transform="translate(173.50447,-22.626904)">
    <g
       style="fill:#cccccc;fill-opacity:1;stroke:#000000;stroke-opacity:1;stroke-width:0.30865985;stroke-miterlimit:4;stroke-dasharray:none"
       id="g22"
       transform="matrix(0.55076811,0,0,0.55076811,-173.67728,22.178708)">
      <path
         id="path8"
         d="M 6.354,5.5 H 4 a 3,3 0 0 0 0,6 h 3 a 3,3 0 0 0 2.83,-4 H 9 C 8.914,7.5 8.83,7.51 8.75,7.531 A 2,2 0 0 1 7,10.5 H 4 a 2,2 0 1 1 0,-4 H 5.535 C 5.753,6.124 6.03,5.786 6.355,5.5 Z"
         inkscape:connector-curvature="0"
         style="fill:#cccccc;fill-opacity:1;stroke:#000000;stroke-opacity:1;stroke-width:0.30865985;stroke-miterlimit:4;stroke-dasharray:none" />
      <path
         id="path10"
         d="m 9,5.5 a 3,3 0 0 0 -2.83,4 H 7.268 A 2,2 0 0 1 9,6.5 h 3 a 2,2 0 1 1 0,4 h -1.535 a 4.02,4.02 0 0 1 -0.82,1 H 12 a 3,3 0 1 0 0,-6 z"
         inkscape:connector-curvature="0"
         style="fill:#cccccc;fill-opacity:1;stroke:#000000;stroke-opacity:1;stroke-width:0.30865985;stroke-miterlimit:4;stroke-dasharray:none" />
    </g>
  </g>
</svg>
