<?xml version="1.0" encoding="UTF-8" standalone="no"?>
<!-- Created with Inkscape (http://www.inkscape.org/) -->

<svg
   xmlns:dc="http://purl.org/dc/elements/1.1/"
   xmlns:cc="http://creativecommons.org/ns#"
   xmlns:rdf="http://www.w3.org/1999/02/22-rdf-syntax-ns#"
   xmlns:svg="http://www.w3.org/2000/svg"
   xmlns="http://www.w3.org/2000/svg"
   xmlns:sodipodi="http://sodipodi.sourceforge.net/DTD/sodipodi-0.dtd"
   xmlns:inkscape="http://www.inkscape.org/namespaces/inkscape"
   width="32"
   height="32"
   viewBox="0 0 8.4666669 8.4666669"
   version="1.1"
   id="svg8"
   inkscape:version="0.92.5 (2060ec1f9f, 2020-04-08)"
   sodipodi:docname="markdown.svg"
   inkscape:export-filename="/home/art/SourceCode/flatsitebuilder/plugins/markdown.png"
   inkscape:export-xdpi="96"
   inkscape:export-ydpi="96">
  <defs
     id="defs2" />
  <sodipodi:namedview
     id="base"
     pagecolor="#ffffff"
     bordercolor="#666666"
     borderopacity="1.0"
     inkscape:pageopacity="0.0"
     inkscape:pageshadow="2"
     inkscape:zoom="15.432245"
     inkscape:cx="23.112834"
     inkscape:cy="8.2777263"
     inkscape:document-units="mm"
     inkscape:current-layer="layer1-3"
     showgrid="false"
     fit-margin-top="0"
     fit-margin-left="0"
     fit-margin-right="0"
     fit-margin-bottom="0"
     units="px"
     inkscape:window-width="1848"
     inkscape:window-height="1016"
     inkscape:window-x="72"
     inkscape:window-y="27"
     inkscape:window-maximized="1" />
  <metadata
     id="metadata5">
    <rdf:RDF>
      <cc:Work
         rdf:about="">
        <dc:format>image/svg+xml</dc:format>
        <dc:type
           rdf:resource="http://purl.org/dc/dcmitype/StillImage" />
        <dc:title></dc:title>
      </cc:Work>
    </rdf:RDF>
  </metadata>
  <g
     inkscape:label="Ebene 1"
     inkscape:groupmode="layer"
     id="layer1"
     transform="translate(94.473892,-144.88222)">
    <g
       transform="translate(8.7211916,-0.97732526)"
       id="layer1-3"
       inkscape:label="Ebene 1">
      <rect
         y="145.74083"
         x="-103.19508"
         height="8.5853825"
         width="8.4977751"
         id="rect881"
         style="opacity:0.95999995;fill:#999999;fill-opacity:1;stroke:none;stroke-width:0.39687499;stroke-miterlimit:4;stroke-dasharray:none;stroke-opacity:1" />
      <path
         inkscape:connector-curvature="0"
         id="path883"
         d="m -73.974103,151.24634 -0.175212,-0.78845"
         style="fill:none;stroke:#000000;stroke-width:0.26458332px;stroke-linecap:butt;stroke-linejoin:miter;stroke-opacity:1" />
    </g>
    <g
       style="fill:#525252;fill-opacity:1"
       id="g144"
       transform="matrix(0.49925329,0,0,0.49925329,-94.234585,145.12153)"
       inkscape:export-xdpi="96"
       inkscape:export-ydpi="96">
      <path
         id="path124"
         d="m 14,3 a 1,1 0 0 1 1,1 v 8 a 1,1 0 0 1 -1,1 H 2 A 1,1 0 0 1 1,12 V 4 A 1,1 0 0 1 2,3 Z M 2,2 A 2,2 0 0 0 0,4 v 8 a 2,2 0 0 0 2,2 h 12 a 2,2 0 0 0 2,-2 V 4 A 2,2 0 0 0 14,2 Z"
         inkscape:connector-curvature="0"
         style="fill:#525252;fill-opacity:1" />
      <path
         id="path126"
         d="m 9.146,8.146 a 0.5,0.5 0 0 1 0.708,0 L 11.5,9.793 13.146,8.146 a 0.5006316,0.5006316 0 0 1 0.708,0.708 l -2,2 a 0.5,0.5 0 0 1 -0.708,0 l -2,-2 a 0.5,0.5 0 0 1 0,-0.708 z"
         inkscape:connector-curvature="0"
         style="fill-rule:evenodd;fill:#525252;fill-opacity:1" />
      <path
         id="path128"
         d="M 11.5,5 A 0.5,0.5 0 0 1 12,5.5 v 4 a 0.5,0.5 0 0 1 -1,0 v -4 A 0.5,0.5 0 0 1 11.5,5 Z"
         inkscape:connector-curvature="0"
         style="fill-rule:evenodd;fill:#525252;fill-opacity:1" />
      <path
         id="path130"
         d="M 3.56,11 V 7.01 h 0.056 l 1.428,3.239 h 0.774 l 1.42,-3.24 H 7.294 V 11 H 8.367 V 5.001 h -1.2 L 5.457,8.895 H 5.418 L 3.708,5.001 H 2.5 V 11 Z"
         inkscape:connector-curvature="0"
         style="fill:#525252;fill-opacity:1" />
    </g>
  </g>
</svg>
