<?xml version="1.0" encoding="UTF-8" standalone="no"?>
<svg
   xmlns:dc="http://purl.org/dc/elements/1.1/"
   xmlns:cc="http://creativecommons.org/ns#"
   xmlns:rdf="http://www.w3.org/1999/02/22-rdf-syntax-ns#"
   xmlns:svg="http://www.w3.org/2000/svg"
   xmlns="http://www.w3.org/2000/svg"
   xmlns:sodipodi="http://sodipodi.sourceforge.net/DTD/sodipodi-0.dtd"
   xmlns:inkscape="http://www.inkscape.org/namespaces/inkscape"
   inkscape:export-ydpi="96"
   inkscape:export-xdpi="96"
   inkscape:export-filename="/Users/user/SourceCode/FlatSiteBuilderPython/plugins/shopify.png"
   sodipodi:docname="shopify.svg"
   inkscape:version="1.0beta2 (2b71d25, 2019-12-03)"
   id="svg8"
   version="1.1"
   viewBox="0 0 8.4666665 8.4666669"
   height="32"
   width="32">
  <defs
     id="defs2">
	
	
</defs>
  <sodipodi:namedview
     inkscape:window-maximized="0"
     inkscape:window-y="23"
     inkscape:window-x="0"
     inkscape:window-height="955"
     inkscape:window-width="1600"
     units="px"
     showgrid="false"
     inkscape:document-rotation="0"
     inkscape:current-layer="layer1"
     inkscape:document-units="mm"
     inkscape:cy="21.621747"
     inkscape:cx="17.806145"
     inkscape:zoom="12.923909"
     inkscape:pageshadow="2"
     inkscape:pageopacity="0.0"
     borderopacity="1.0"
     bordercolor="#666666"
     pagecolor="#ffffff"
     id="base" />
  <metadata
     id="metadata5">
    <rdf:RDF>
      <cc:Work
         rdf:about="">
        <dc:format>image/svg+xml</dc:format>
        <dc:type
           rdf:resource="http://purl.org/dc/dcmitype/StillImage" />
        <dc:title></dc:title>
      </cc:Work>
    </rdf:RDF>
  </metadata>
  <g
     id="layer1"
     inkscape:groupmode="layer"
     inkscape:label="Layer 1">
    <g
       transform="matrix(0.05986244,0,0,0.05986244,0.56676464,0.0838071)"
       id="g34">
		<path
   id="path26"
   d="m 107.4,27.1 c -0.1,-0.7 -0.7,-1.1 -1.2,-1.1 -0.5,0 -10.4,-0.2 -10.4,-0.2 0,0 -8.3,-8 -9.1,-8.9 -0.8,-0.8 -2.4,-0.6 -3,-0.4 0,0 -1.6,0.5 -4.2,1.3 -0.4,-1.4 -1.1,-3.1 -2,-4.9 C 74.6,7.3 70.2,4.3 65,4.3 c 0,0 0,0 0,0 -0.4,0 -0.7,0 -1.1,0.1 C 63.7,4.2 63.6,4 63.4,3.9 61.1,1.5 58.2,0.3 54.7,0.4 48,0.6 41.3,5.5 35.8,14.1 32,20.2 29.1,27.8 28.2,33.7 20.5,36.1 15.1,37.8 14.9,37.8 11,39 10.9,39.1 10.4,42.8 10.2,45.6 0,124.5 0,124.5 l 85.6,14.8 37.1,-9.2 c -0.1,0 -15.2,-102.3 -15.3,-103 z M 75.2,19.2 c -2,0.6 -4.2,1.3 -6.6,2.1 0,-3.4 -0.5,-8.2 -2,-12.2 5.1,0.8 7.6,6.6 8.6,10.1 z m -11.1,3.4 c -4.5,1.4 -9.4,2.9 -14.3,4.4 1.4,-5.3 4,-10.5 7.2,-14 1.2,-1.3 2.9,-2.7 4.8,-3.5 2,3.9 2.4,9.4 2.3,13.1 z M 54.9,4.9 c 1.6,0 2.9,0.3 4,1.1 -1.8,0.9 -3.6,2.3 -5.2,4.1 -4.3,4.6 -7.6,11.7 -8.9,18.6 C 40.7,30 36.7,31.2 33.1,32.3 35.5,21.4 44.6,5.2 54.9,4.9 Z"
   class="st0"
   inkscape:connector-curvature="0" />

		<g
   id="g32">
			<path
   id="path28"
   d="m 106.2,26 c -0.5,0 -10.4,-0.2 -10.4,-0.2 0,0 -8.3,-8 -9.1,-8.9 -0.3,-0.3 -0.7,-0.5 -1.1,-0.5 v 122.9 l 37.1,-9.2 c 0,0 -15.1,-102.3 -15.2,-103 -0.2,-0.7 -0.8,-1.1 -1.3,-1.1 z"
   class="st1"
   inkscape:connector-curvature="0" />

			<path
   id="path30"
   d="m 65,45.1 -4.3,16.1 c 0,0 -4.8,-2.2 -10.5,-1.8 -8.4,0.5 -8.4,5.8 -8.4,7.1 0.5,7.2 19.4,8.8 20.5,25.7 0.8,13.3 -7,22.4 -18.4,23.1 C 30.3,116 22.8,108 22.8,108 l 2.9,-12.3 c 0,0 7.6,5.7 13.6,5.3 3.9,-0.2 5.4,-3.5 5.2,-5.7 C 43.9,85.9 28.5,86.5 27.5,71 26.7,58 35.2,44.9 54,43.7 c 7.3,-0.5 11,1.4 11,1.4 z"
   class="st2"
   inkscape:connector-curvature="0" />

		</g>

	</g>
  </g>
  <style
     type="text/css"
     id="style24">
	.st0{fill:#95BF47;}
	.st1{fill:#5E8E3E;}
	.st2{fill:#FFFFFF;}
</style>
</svg>
