<?xml version="1.0" encoding="UTF-8" standalone="no"?>
<!DOCTYPE svg PUBLIC "-//W3C//DTD SVG 1.1//EN" "http://www.w3.org/Graphics/SVG/1.1/DTD/svg11.dtd">
<svg width="100%" height="100%" viewBox="0 0 32 32" version="1.1" xmlns="http://www.w3.org/2000/svg" xmlns:xlink="http://www.w3.org/1999/xlink" xml:space="preserve" xmlns:serif="http://www.serif.com/" style="fill-rule:evenodd;clip-rule:evenodd;stroke-linejoin:round;stroke-miterlimit:2;">
    <g transform="matrix(0.297343,0,0,0.297343,-28.9701,0)">
        <g id="icon">
            <g transform="matrix(1,0,0,1,-0.21,0)">
                <path d="M163.76,0L163.76,0.58C163.76,7.35 158.19,12.92 151.42,12.92C144.65,12.92 139.08,7.35 139.08,0.58L139.08,0L97.64,0L97.64,107.62L205.26,107.62L205.26,0L163.76,0ZM149,96.1L143.76,70.17L143.67,70.17L138,96.1L130.78,96.1L122.6,58L129.73,58L134.61,83.93L134.7,83.93L140.58,58L147.25,58L152.53,84.25L152.62,84.25L158.19,58L165.19,58L156.1,96.1L149,96.1ZM188.26,96.1L185.83,87.62L173,87.62L171.13,96.1L164,96.1L173.22,58L184.47,58L195.68,96.1L188.26,96.1Z" style="fill:rgb(101,79,240);fill-rule:nonzero;"/>
            </g>
            <path d="M177.3,67.39L174.19,81.37L183.87,81.37L180.3,67.39L177.3,67.39Z" style="fill:rgb(101,79,240);fill-rule:nonzero;"/>
        </g>
    </g>
</svg>
